<svg width="616" height="970" viewBox="0 0 616 970" fill="none" xmlns="http://www.w3.org/2000/svg">
<path d="M287.426 959.17L195.698 976.929C178.18 1022.35 172.062 1071.02 177.876 1118.71C224.105 1045.01 330.323 1037.55 398.046 982.169C419.039 964.74 435.907 942.976 447.4 918.49C458.894 894.004 464.719 867.425 464.444 840.72L491.663 780.752C447.985 779.579 404.321 787.769 363.68 804.757C323.038 821.745 286.386 847.128 256.249 879.156C239.517 897.284 225.114 917.358 213.377 938.907C250.316 946.802 287.426 959.17 287.426 959.17Z" fill="#9BD241" fill-opacity="0.4"/>
<path d="M364.494 494.657L279.462 511.12C259.991 535.221 244.399 562.091 233.258 590.747C308.675 546.3 404.637 588.974 490.002 570.899C516.588 565.061 541.657 553.43 563.351 536.868C585.045 520.306 602.808 499.237 615.323 475.223L667.645 434.228C630.209 412.888 588.314 399.929 544.845 396.244C501.377 392.559 457.37 398.236 415.855 412.883C376.256 427.353 339.974 449.808 309.37 478.786C339.067 486.184 364.494 494.657 364.494 494.657Z" fill="#9BD241" fill-opacity="0.4"/>
<path d="M911.29 255.513C930.617 246.725 950.323 238.832 970.405 231.835C966.474 227.986 962.649 224.246 958.911 220.551C941.196 226.901 923.763 233.949 906.612 241.696C903.743 242.991 900.849 244.328 897.932 245.709C866.332 260.433 835.816 277.408 806.632 296.496C750.403 333.145 699.422 377.211 655.161 427.424C654.357 428.285 653.62 429.125 652.86 430.008C640.789 443.857 629.229 458.19 618.293 472.899C616.066 475.854 613.858 478.874 611.674 481.85C605.788 490.07 600.075 498.38 594.535 506.777C574.36 537.399 556.668 569.506 541.63 602.787C515.917 659.707 497.807 719.516 487.766 780.682C487.05 785.023 486.335 789.364 485.774 793.729C485.368 796.29 485.006 798.874 484.644 801.458C475.491 869.721 476.46 938.676 487.523 1006.14C487.935 1008.63 488.372 1011.07 488.808 1013.51C489.845 1019.3 490.949 1025.08 492.12 1030.83C492.289 1031.82 492.695 1032.74 493.305 1033.53C493.915 1034.32 494.71 1034.95 495.626 1035.36C496.541 1035.78 497.549 1035.97 498.567 1035.92C499.585 1035.88 500.583 1035.59 501.478 1035.09C503.205 1034.44 504.65 1033.2 505.546 1031.61C506.441 1030.01 506.726 1028.16 506.346 1026.4C505.398 1021.76 504.473 1017.07 503.702 1012.41C502.614 1006.81 501.703 1001.19 500.902 995.57C482.34 873.168 497.677 747.234 545.301 630.988C574.863 559.458 616.428 493.095 668.216 434.745L668.259 434.767C699.38 399.568 733.942 367.465 771.421 338.945C778.908 333.265 786.499 327.732 794.195 322.345C814.182 308.301 834.88 295.29 856.203 283.367C874.149 273.259 892.511 263.974 911.29 255.513Z" fill="#3F3D56" fill-opacity="0.6"/>
</svg>
