<svg width="74" height="56" viewBox="0 0 74 56" fill="none" xmlns="http://www.w3.org/2000/svg">
<rect width="74" height="56" rx="25.7" fill="#9BD241" fill-opacity="0.63"/>
<path d="M29.8438 14.375C28.3933 14.375 27.0023 14.9512 25.9768 15.9768C24.9512 17.0023 24.375 18.3933 24.375 19.8438V22.0312C24.375 22.3213 24.4902 22.5995 24.6954 22.8046C24.9005 23.0098 25.1787 23.125 25.4688 23.125C25.7588 23.125 26.037 23.0098 26.2421 22.8046C26.4473 22.5995 26.5625 22.3213 26.5625 22.0312V19.8438C26.5625 18.9735 26.9082 18.1389 27.5236 17.5236C28.1389 16.9082 28.9735 16.5625 29.8438 16.5625H32.0312C32.3213 16.5625 32.5995 16.4473 32.8046 16.2421C33.0098 16.037 33.125 15.7588 33.125 15.4688C33.125 15.1787 33.0098 14.9005 32.8046 14.6954C32.5995 14.4902 32.3213 14.375 32.0312 14.375H29.8438ZM42.9688 14.375C42.6787 14.375 42.4005 14.4902 42.1954 14.6954C41.9902 14.9005 41.875 15.1787 41.875 15.4688C41.875 15.7588 41.9902 16.037 42.1954 16.2421C42.4005 16.4473 42.6787 16.5625 42.9688 16.5625H45.1562C46.0265 16.5625 46.8611 16.9082 47.4764 17.5236C48.0918 18.1389 48.4375 18.9735 48.4375 19.8438V22.0312C48.4375 22.3213 48.5527 22.5995 48.7579 22.8046C48.963 23.0098 49.2412 23.125 49.5312 23.125C49.8213 23.125 50.0995 23.0098 50.3046 22.8046C50.5098 22.5995 50.625 22.3213 50.625 22.0312V19.8438C50.625 18.3933 50.0488 17.0023 49.0232 15.9768C47.9977 14.9512 46.6067 14.375 45.1562 14.375H42.9688ZM26.5625 32.9688C26.5625 32.6787 26.4473 32.4005 26.2421 32.1954C26.037 31.9902 25.7588 31.875 25.4688 31.875C25.1787 31.875 24.9005 31.9902 24.6954 32.1954C24.4902 32.4005 24.375 32.6787 24.375 32.9688V35.1562C24.375 36.6067 24.9512 37.9977 25.9768 39.0232C27.0023 40.0488 28.3933 40.625 29.8438 40.625H32.0312C32.3213 40.625 32.5995 40.5098 32.8046 40.3046C33.0098 40.0995 33.125 39.8213 33.125 39.5312C33.125 39.2412 33.0098 38.963 32.8046 38.7579C32.5995 38.5527 32.3213 38.4375 32.0312 38.4375H29.8438C28.9735 38.4375 28.1389 38.0918 27.5236 37.4764C26.9082 36.8611 26.5625 36.0265 26.5625 35.1562V32.9688ZM50.625 32.9688C50.625 32.6787 50.5098 32.4005 50.3046 32.1954C50.0995 31.9902 49.8213 31.875 49.5312 31.875C49.2412 31.875 48.963 31.9902 48.7579 32.1954C48.5527 32.4005 48.4375 32.6787 48.4375 32.9688V35.1562C48.4375 36.0265 48.0918 36.8611 47.4764 37.4764C46.8611 38.0918 46.0265 38.4375 45.1562 38.4375H42.9688C42.6787 38.4375 42.4005 38.5527 42.1954 38.7579C41.9902 38.963 41.875 39.2412 41.875 39.5312C41.875 39.8213 41.9902 40.0995 42.1954 40.3046C42.4005 40.5098 42.6787 40.625 42.9688 40.625H45.1562C46.6067 40.625 47.9977 40.0488 49.0232 39.0232C50.0488 37.9977 50.625 36.6067 50.625 35.1562V32.9688ZM29.8438 31.875V26.1547C29.8438 25.5745 30.0742 25.0181 30.4845 24.6079C30.8947 24.1977 31.4511 23.9672 32.0312 23.9672H33.6719L34.9406 21.9547C35.1384 21.6424 35.412 21.3853 35.736 21.2075C36.06 21.0296 36.4238 20.9367 36.7934 20.9375H38.2109C38.58 20.9377 38.9431 21.0312 39.2662 21.2095C39.5894 21.3877 39.8623 21.6448 40.0594 21.9569L41.3303 23.9672H42.9709C43.5511 23.9672 44.1075 24.1977 44.5177 24.6079C44.928 25.0181 45.1584 25.5745 45.1584 26.1547V31.875C45.1584 32.4552 44.928 33.0116 44.5177 33.4218C44.1075 33.832 43.5511 34.0625 42.9709 34.0625H32.0334C31.4533 34.0625 30.8969 33.832 30.4866 33.4218C30.0764 33.0116 29.8459 32.4552 29.8459 31.875H29.8438ZM37.5 30.7812C38.0802 30.7812 38.6366 30.5508 39.0468 30.1405C39.457 29.7303 39.6875 29.1739 39.6875 28.5938C39.6875 28.0136 39.457 27.4572 39.0468 27.047C38.6366 26.6367 38.0802 26.4062 37.5 26.4062C36.9198 26.4062 36.3634 26.6367 35.9532 27.047C35.543 27.4572 35.3125 28.0136 35.3125 28.5938C35.3125 29.1739 35.543 29.7303 35.9532 30.1405C36.3634 30.5508 36.9198 30.7812 37.5 30.7812Z" fill="#F7FAF0"/>
</svg>
