<svg width="29" height="30" viewBox="0 0 29 30" fill="none" xmlns="http://www.w3.org/2000/svg">
<path d="M5.26247 17.25C4.83747 17.25 4.53747 17.131 4.36247 16.893C4.18747 16.656 4.12497 16.3375 4.17497 15.9375C4.19997 15.7125 4.21897 15.531 4.23197 15.393C4.24397 15.256 4.24997 15.125 4.24997 15C4.24997 14.25 3.99997 13.3 3.49997 12.15C2.99997 11 2.74997 10.1375 2.74997 9.5625C2.74997 9.3375 2.76247 9.106 2.78747 8.868C2.81247 8.631 2.88747 8.4 3.01247 8.175C3.11247 7.975 3.24997 7.8125 3.42497 7.6875C3.59997 7.5625 3.78747 7.5 3.98747 7.5C4.38747 7.5 4.69397 7.6185 4.90697 7.8555C5.11897 8.0935 5.17497 8.4125 5.07497 8.8125C5.02497 9.0375 4.99997 9.2875 4.99997 9.5625C4.99997 10.1375 5.24997 11 5.74997 12.15C6.24997 13.3 6.49997 14.25 6.49997 15C6.49997 15.375 6.47497 15.6875 6.42497 15.9375C6.37497 16.1875 6.31247 16.4 6.23747 16.575C6.13747 16.775 5.99997 16.9375 5.82497 17.0625C5.64997 17.1875 5.46247 17.25 5.26247 17.25ZM15.0125 17.25C14.5875 17.25 14.2875 17.131 14.1125 16.893C13.9375 16.656 13.875 16.3375 13.925 15.9375C13.95 15.7125 13.969 15.531 13.982 15.393C13.994 15.256 14 15.125 14 15C14 14.25 13.75 13.3 13.25 12.15C12.75 11 12.5 10.1375 12.5 9.5625C12.5 9.3375 12.5125 9.106 12.5375 8.868C12.5625 8.631 12.6375 8.4 12.7625 8.175C12.8625 7.975 13 7.8125 13.175 7.6875C13.35 7.5625 13.5375 7.5 13.7375 7.5C14.1375 7.5 14.444 7.6185 14.657 7.8555C14.869 8.0935 14.925 8.4125 14.825 8.8125C14.775 9.0375 14.75 9.2875 14.75 9.5625C14.75 10.1375 15 11 15.5 12.15C16 13.3 16.25 14.25 16.25 15C16.25 15.375 16.225 15.6875 16.175 15.9375C16.125 16.1875 16.0625 16.4 15.9875 16.575C15.8875 16.775 15.75 16.9375 15.575 17.0625C15.4 17.1875 15.2125 17.25 15.0125 17.25ZM10.1375 17.25C9.71247 17.25 9.41247 17.131 9.23747 16.893C9.06247 16.656 8.99997 16.3375 9.04997 15.9375C9.07497 15.7125 9.09397 15.531 9.10697 15.393C9.11897 15.256 9.12497 15.125 9.12497 15C9.12497 14.25 8.87497 13.3 8.37497 12.15C7.87497 11 7.62497 10.1375 7.62497 9.5625C7.62497 9.3375 7.63747 9.106 7.66247 8.868C7.68747 8.631 7.76247 8.4 7.88747 8.175C7.98747 7.975 8.12497 7.8125 8.29997 7.6875C8.47497 7.5625 8.66247 7.5 8.86247 7.5C9.26247 7.5 9.56897 7.6185 9.78197 7.8555C9.99397 8.0935 10.05 8.4125 9.94997 8.8125C9.89997 9.0375 9.87497 9.2875 9.87497 9.5625C9.87497 10.1375 10.125 11 10.625 12.15C11.125 13.3 11.375 14.25 11.375 15C11.375 15.375 11.35 15.6875 11.3 15.9375C11.25 16.1875 11.1875 16.4 11.1125 16.575C11.0125 16.775 10.875 16.9375 10.7 17.0625C10.525 17.1875 10.3375 17.25 10.1375 17.25ZM10.625 30C8.09997 30 5.88097 29.156 3.96797 27.468C2.05597 25.781 0.899972 23.6875 0.499972 21.1875C0.449972 20.7375 0.574972 20.3435 0.874972 20.0055C1.17497 19.6685 1.54997 19.5 1.99997 19.5H17.7875L19.4375 3.975C19.5625 2.85 20.0435 1.906 20.8805 1.143C21.7185 0.381 22.725 0 23.9 0C25.15 0 26.2125 0.4375 27.0875 1.3125C27.9625 2.1875 28.4 3.25 28.4 4.5L28.325 5.2125C28.275 5.6375 28.094 5.981 27.782 6.243C27.469 6.506 27.1 6.6125 26.675 6.5625C26.275 6.5125 25.944 6.331 25.682 6.018C25.419 5.706 25.3125 5.35 25.3625 4.95L25.4 4.5C25.4 4.075 25.256 3.7185 24.968 3.4305C24.681 3.1435 24.325 3 23.9 3C23.5 3 23.1625 3.131 22.8875 3.393C22.6125 3.656 22.45 3.975 22.4 4.35L20.675 20.6625C20.4 23.3125 19.3125 25.531 17.4125 27.318C15.5125 29.106 13.25 30 10.625 30ZM10.625 27C12.1 27 13.425 26.5875 14.6 25.7625C15.775 24.9375 16.625 23.85 17.15 22.5H3.98747C4.56247 23.85 5.44397 24.9375 6.63197 25.7625C7.81897 26.5875 9.14997 27 10.625 27Z" fill="#9BD241" fill-opacity="0.63"/>
</svg>
