<svg width="41" height="29" viewBox="0 0 41 29" fill="none" xmlns="http://www.w3.org/2000/svg">
<path d="M16.4168 20.6252L27.0131 14.5002L16.4168 8.37516V20.6252ZM40.0185 4.63891C40.2839 5.5985 40.4677 6.88475 40.5902 8.51808C40.7331 10.1514 40.7943 11.5602 40.7943 12.7852L40.9168 14.5002C40.9168 18.9714 40.5902 22.2585 40.0185 24.3614C39.5081 26.1989 38.3239 27.3831 36.4864 27.8935C35.5268 28.1589 33.771 28.3427 31.076 28.4652C28.4218 28.6081 25.9922 28.6693 23.7464 28.6693L20.5002 28.7918C11.9456 28.7918 6.61683 28.4652 4.51391 27.8935C2.67641 27.3831 1.49225 26.1989 0.98183 24.3614C0.716413 23.4018 0.532663 22.1156 0.410163 20.4822C0.267246 18.8489 0.205996 17.4402 0.205996 16.2152L0.0834961 14.5002C0.0834961 10.0289 0.410163 6.74183 0.98183 4.63891C1.49225 2.80141 2.67641 1.61725 4.51391 1.10683C5.4735 0.841413 7.22933 0.657662 9.92433 0.535162C12.5785 0.392246 15.0081 0.330996 17.2539 0.330996L20.5002 0.208496C29.0547 0.208496 34.3835 0.535163 36.4864 1.10683C38.3239 1.61725 39.5081 2.80141 40.0185 4.63891Z" fill="#9BD241" fill-opacity="0.63"/>
</svg>
